<svg xmlns="http://www.w3.org/2000/svg" viewBox="0 0 64 64" width="64" height="64" role="img" aria-label="port-droid">
  <rect x="1.5" y="1.5" width="61" height="61" rx="14" fill="#141414" stroke="#2A2A2A" stroke-width="1.5"/>
  <g fill="#DFFF00" shape-rendering="crispEdges"><rect x="29.0" y="14.0" width="7" height="7"/><rect x="15.0" y="21.0" width="7" height="7"/><rect x="22.0" y="21.0" width="7" height="7"/><rect x="29.0" y="21.0" width="7" height="7"/><rect x="36.0" y="21.0" width="7" height="7"/><rect x="43.0" y="21.0" width="7" height="7"/><rect x="8.0" y="28.0" width="7" height="7"/><rect x="15.0" y="28.0" width="7" height="7"/><rect x="22.0" y="28.0" width="7" height="7"/><rect x="29.0" y="28.0" width="7" height="7"/><rect x="36.0" y="28.0" width="7" height="7"/><rect x="43.0" y="28.0" width="7" height="7"/><rect x="50.0" y="28.0" width="7" height="7"/><rect x="8.0" y="35.0" width="7" height="7"/><rect x="15.0" y="35.0" width="7" height="7"/><rect x="29.0" y="35.0" width="7" height="7"/><rect x="43.0" y="35.0" width="7" height="7"/><rect x="50.0" y="35.0" width="7" height="7"/><rect x="15.0" y="42.0" width="7" height="7"/><rect x="22.0" y="42.0" width="7" height="7"/><rect x="29.0" y="42.0" width="7" height="7"/><rect x="36.0" y="42.0" width="7" height="7"/><rect x="43.0" y="42.0" width="7" height="7"/></g>
</svg>